P1
4 4

0011
0011
1000
1110
